/* XPM */
static const char *cobst[] = {
/* columns rows colors chars-per-pixel */
"40 40 2 1",
"  c black",
". c gray100",
/* pixels */
"........................................",
"........................................",
"........................................",
"........................................",
"........................................",
"........................................",
"......   ...............................",
".....  .. ..............................",
"..... ....  ............................",
"..... ...... ...........................",
"....  ....... ..........................",
".... ........ ..........................",
"...  ...................................",
"...  ...................................",
".... ...................................",
".... ...................................",
"...  ...................................",
"... ....................................",
"..  ....................................",
".. .....................................",
".. .....................................",
"... ....................................",
"... .......... .....  ........ .........",
"...  ........  ...... ........ .........",
".... ........ ....... ........   .......",
".... .......  ....... ........ .........",
"....  .....  ...  ... ....  .. .........",
".....      ....     .    .   . .........",
"............... ... . .. .  .. .........",
"...............  ..   ..  .  . .........",
"................   ..   ..   . .........",
"........................................",
"........................................",
"........................................",
"........................................",
"........................................",
"........................................",
"........................................",
"........................................",
"........................................"
};
