/* XPM */
static const char *dilated[] = {
/* columns rows colors chars-per-pixel */
"40 40 12 1",
"  c black",
". c #040404",
"X c gray2",
"o c gray9",
"O c gray16",
"+ c #3C3C3C",
"@ c #727272",
"# c #979797",
"$ c #A9A9A9",
"% c #BBBBBB",
"& c #CDCDCD",
"* c gray100",
/* pixels */
"****************************************",
"********************   *****************",
"*******************     ****************",
"****     ********** * * ****************",
"****   ************** ******************",
"**** *  ************* *************   **",
"**** ** ***************************   **",
"*******  ********%@+oX o+@%********   **",
"********  *****#O          O#*****  * **",
"*************&+              +&**  *****",
"************$X                X$********",
"***********$                    $*******",
"**********&X                    X&******",
"**********+                      +******",
"** ******#                        #*****",
"*  ******O                        O*****",
"*   ****%                          %****",
"* *    *@                          @****",
"* ******+                          +****",
"********o                          o****",
"********X                           *  *",
"********                           X****",
"********o                          o****",
"********+                          +****",
"********@                          @****",
"********%                          %****",
"*********O                        O*****",
"*********#                        #*****",
"******  **+                      +******",
"* ***  ***&X                    X&******",
"*  * ******$                    $*******",
"**   *******$X                X$********",
"**  *********&+              +&*********",
"***   *********#O          O#***********",
"*****************%@+oX o+@%****  *******",
"********************************  ******",
"****************** **************   ****",
"*************** *  ***************  ****",
"***************    **************   ****",
"****************************************"
};
